# Blender 4.2.0
# www.blender.org
mtllib DiMian_005.mtl
o 立方体.103
v 9.500000 0.000000 -9.500000
v 0.000000 0.000000 -9.500000
v 9.500000 0.000000 0.000000
v 0.000000 0.000000 0.000000
v -9.500000 0.000000 -9.500000
v -9.500000 0.000000 0.000000
v 9.500000 0.000000 9.500000
v 0.000000 0.000000 9.500000
v -9.500000 0.000000 9.500000
vn -0.0000 1.0000 -0.0000
vt 0.369921 0.431478
vt 0.910533 0.431478
vt 0.910533 0.956095
vt 0.369921 0.956095
s 0
usemtl 马路002.002
f 3/1/1 1/2/1 2/3/1 4/4/1
f 6/1/1 4/4/1 2/3/1 5/2/1
f 3/1/1 4/4/1 8/3/1 7/2/1
f 6/1/1 9/2/1 8/3/1 4/4/1
