# Blender 4.2.0
# www.blender.org
mtllib DiMian_004.mtl
o 立方体.096
v -19.000002 0.277205 -5.999995
v -19.000000 0.010000 -0.469994
v -19.000000 0.277205 -0.469994
v -0.000000 0.010000 -0.470000
v -0.000002 0.277205 -6.000001
v -0.000000 0.277205 -0.470000
v -19.000000 0.010000 0.000005
v -0.000000 0.010000 -0.000001
v -19.000000 0.000000 0.000005
v -0.000000 0.000000 -0.000001
vn -0.0000 -0.0000 1.0000
vn -0.0000 1.0000 -0.0000
vt 0.295128 0.019707
vt 0.309008 0.019707
vt 0.309008 0.999980
vt 0.295128 0.999980
vt 0.000083 0.019461
vt 0.291087 0.019460
vt 0.291087 0.999917
vt 0.000083 0.999917
vt 0.333417 0.019707
vt 0.333417 0.999980
vt 0.321536 0.999980
vt 0.321536 0.019707
vt 0.322536 0.019706
vt 0.322536 0.999980
s 0
usemtl 马路002.002
f 3/1/1 2/2/1 4/3/1 6/4/1
f 1/5/2 3/6/2 6/7/2 5/8/2
f 4/3/2 2/2/2 7/9/2 8/10/2
f 8/11/1 7/12/1 9/13/1 10/14/1
