# Blender 4.2.0
# www.blender.org
mtllib DiMian_002.mtl
o group1_TEMPORARY_IMPORT_NAMESPACE_室外____:pCubeSh5.007
v -9.499999 -0.000002 9.500000
v 9.500000 -0.000002 9.500000
v -9.499999 0.000002 -9.500000
v 9.500000 0.000002 -9.500000
v -3.499999 -0.000002 9.500000
v -3.499999 0.000002 -9.500000
v 3.500000 -0.000002 9.500000
v 3.500000 0.000002 -9.500000
v -9.499999 -0.000001 3.500000
v 9.500000 -0.000001 3.500000
v -3.499999 -0.000001 3.500000
v 3.500000 -0.000001 3.500000
v -9.499999 0.000001 -3.500000
v -3.499999 0.000001 -3.500000
v 3.500000 0.000001 -3.500000
v 9.500000 0.000001 -3.500000
vn -0.0000 1.0000 -0.0000
vt 0.799962 0.570261
vt 0.799962 0.373475
vt 0.996748 0.373475
vt 0.996748 0.570261
vt 0.373593 0.570261
vt 0.373593 0.373475
vt 0.570379 0.373475
vt 0.570379 0.570261
vt 0.570379 0.799844
vt 0.799962 0.799844
vt 0.373593 0.799844
vt 0.996748 0.799844
vt 0.799962 0.996630
vt 0.996748 0.996630
vt 0.373593 0.996630
vt 0.570379 0.996630
s 1
usemtl 马路002.001
f 12/1/1 7/2/1 2/3/1 10/4/1
f 9/5/1 1/6/1 5/7/1 11/8/1
f 11/8/1 5/7/1 7/2/1 12/1/1
f 14/9/1 11/8/1 12/1/1 15/10/1
f 13/11/1 9/5/1 11/8/1 14/9/1
f 15/10/1 12/1/1 10/4/1 16/12/1
f 8/13/1 15/10/1 16/12/1 4/14/1
f 3/15/1 13/11/1 14/9/1 6/16/1
f 6/16/1 14/9/1 15/10/1 8/13/1
