# Blender 4.2.0
# www.blender.org
mtllib jiedao_BJ_004.mtl
o group1_polySurface40.001
v 2.321454 0.155831 0.023868
v 2.321454 0.155831 -0.014537
v 2.321453 -0.288944 -0.014537
v 2.321453 -0.288944 0.023868
v 2.368533 -0.288944 0.023868
v 2.368533 -0.288944 -0.014537
v 2.368533 0.155831 -0.014537
v 2.368533 0.155831 0.023868
v 2.846769 0.031243 0.031245
v 2.846769 0.031243 -0.031246
v 0.000000 0.031245 -0.031246
v 0.000000 0.031245 0.031246
v -0.000000 -0.031245 0.031246
v -0.000000 -0.031245 -0.031246
v 2.846769 -0.031247 -0.031246
v 2.846769 -0.031247 0.031245
v 2.707021 0.194836 0.031245
v 2.707021 0.194836 -0.031245
v 0.000000 0.194837 -0.031246
v 0.000000 0.194837 0.031245
v 0.000000 0.132346 0.031246
v 0.000000 0.132346 -0.031246
v 2.707021 0.132345 -0.031245
v 2.707021 0.132345 0.031246
v 0.698212 0.155831 0.023868
v 0.698212 0.155831 -0.014537
v 0.698212 -0.288943 -0.014537
v 0.698212 -0.288943 0.023868
v 0.745288 -0.288943 0.023868
v 0.745288 -0.288943 -0.014537
v 0.745288 0.155831 -0.014537
v 0.745288 0.155831 0.023868
v 1.194543 0.144670 0.026333
v 0.958678 -0.002650 0.023868
v 0.958678 -0.002650 -0.014537
v 1.194543 0.144670 -0.012072
v 0.942346 0.024152 0.023868
v 1.178210 0.171472 0.026333
v 1.178210 0.171472 -0.012072
v 0.942346 0.024152 -0.014537
v 0.716853 0.144670 0.026333
v 0.716853 0.144670 -0.012072
v 0.952719 -0.002650 -0.014537
v 0.952719 -0.002650 0.023868
v 0.969051 0.024152 0.023868
v 0.969051 0.024152 -0.014537
v 0.733185 0.171472 -0.012072
v 0.733185 0.171472 0.026333
v 2.120461 0.144669 0.026334
v 1.884593 -0.002651 0.023868
v 1.884593 -0.002651 -0.014537
v 2.120461 0.144669 -0.012072
v 1.868263 0.024152 0.023868
v 2.104128 0.171471 0.026334
v 2.104128 0.171471 -0.012072
v 1.868263 0.024152 -0.014537
v 1.642770 0.144669 0.026334
v 1.642770 0.144669 -0.012072
v 1.878635 -0.002651 -0.014537
v 1.878635 -0.002651 0.023868
v 1.894967 0.024152 0.023868
v 1.894967 0.024152 -0.014537
v 1.659104 0.171471 -0.012072
v 1.659104 0.171471 0.026334
v 1.657501 0.144669 0.026334
v 1.421636 -0.002650 0.023868
v 1.421636 -0.002650 -0.014537
v 1.657501 0.144669 -0.012072
v 1.405304 0.024152 0.023868
v 1.641171 0.171471 0.026334
v 1.641171 0.171471 -0.012072
v 1.405304 0.024152 -0.014537
v 1.179812 0.144670 0.026333
v 1.179812 0.144670 -0.012072
v 1.415677 -0.002650 -0.014537
v 1.415677 -0.002650 0.023868
v 1.432010 0.024152 0.023868
v 1.432010 0.024152 -0.014537
v 1.196143 0.171472 -0.012072
v 1.196143 0.171472 0.026333
v 2.568686 0.144669 0.026334
v 2.568686 0.144669 -0.012072
v 2.804553 -0.002651 -0.014537
v 2.804553 -0.002651 0.023868
v 2.820884 0.024151 0.023868
v 2.820884 0.024151 -0.014537
v 2.585019 0.171471 -0.012072
v 2.585019 0.171471 0.026334
v 2.583418 0.144669 0.026334
v 2.347553 -0.002651 0.023868
v 2.347553 -0.002651 -0.014537
v 2.583418 0.144669 -0.012072
v 2.331220 0.024151 0.023868
v 2.567087 0.171471 0.026334
v 2.567087 0.171471 -0.012072
v 2.331220 0.024151 -0.014537
v 2.105729 0.144669 0.026334
v 2.105729 0.144669 -0.012072
v 2.341593 -0.002651 -0.014537
v 2.341594 -0.002651 0.023868
v 2.357927 0.024151 0.023868
v 2.357926 0.024151 -0.014537
v 2.122061 0.171471 -0.012072
v 2.122061 0.171471 0.026334
v 0.731585 0.144670 0.026333
v 0.495720 -0.002650 0.023868
v 0.495720 -0.002650 -0.014537
v 0.731585 0.144670 -0.012072
v 0.479388 0.024152 0.023868
v 0.715252 0.171472 0.026333
v 0.715252 0.171472 -0.012072
v 0.479388 0.024152 -0.014537
v 0.253895 0.144670 0.026333
v 0.253896 0.144670 -0.012072
v 0.489760 -0.002650 -0.014537
v 0.489760 -0.002650 0.023868
v 0.506092 0.024152 0.023868
v 0.506092 0.024152 -0.014537
v 0.270227 0.171472 -0.012072
v 0.270228 0.171472 0.026333
v 2.706457 -1.314497 -0.107291
v 2.706458 -0.254268 -0.107291
v 2.706458 -0.254268 0.101979
v 2.706457 -1.314497 0.101979
v 0.391916 -0.254267 -0.107291
v 0.391916 -0.254267 0.101978
v 0.391916 -1.314496 -0.107291
v 0.391916 -1.314496 0.101978
vn -1.0000 -0.0000 -0.0000
vn 1.0000 -0.0000 -0.0000
vn -0.0000 -0.0000 -1.0000
vn -0.0000 -0.0000 1.0000
vn -0.0000 1.0000 -0.0000
vn -0.0000 -1.0000 -0.0000
vn 0.5298 -0.8482 -0.0000
vn -0.5298 0.8482 -0.0000
vn 0.0076 0.0046 -1.0000
vn -0.0076 -0.0046 1.0000
vn -0.5297 -0.8482 -0.0000
vn 0.5298 0.8482 -0.0000
vn -0.0076 0.0046 -1.0000
vn 0.0076 -0.0046 1.0000
vn 0.5297 -0.8482 -0.0000
vn -0.5298 -0.8482 -0.0000
vn -0.5297 0.8482 -0.0000
vn 0.5297 0.8482 -0.0000
vt 0.375000 0.250000
vt 0.625000 0.250000
vt 0.625000 0.500000
vt 0.375000 0.500000
vt 0.375000 0.750000
vt 0.625000 0.750000
vt 0.625000 1.000000
vt 0.375000 1.000000
vt 0.625000 0.000000
vt 0.875000 0.000000
vt 0.875000 0.250000
vt 0.125000 0.000000
vt 0.375000 0.000000
vt 0.125000 0.250000
s 1
usemtl group1_polySurface40Mat
f 1/1/1 2/2/1 3/3/1 4/4/1
f 5/5/2 6/6/2 7/7/2 8/8/2
f 7/9/3 6/10/3 3/11/3 2/2/3
f 5/12/4 8/13/4 1/1/4 4/14/4
f 9/1/5 10/2/5 11/3/5 12/4/5
f 13/5/6 14/6/6 15/7/6 16/8/6
f 15/9/3 14/10/3 11/11/3 10/2/3
f 13/12/4 16/13/4 9/1/4 12/14/4
f 17/1/5 18/2/5 19/3/5 20/4/5
f 21/5/6 22/6/6 23/7/6 24/8/6
f 23/9/3 22/10/3 19/11/3 18/2/3
f 21/12/4 24/13/4 17/1/4 20/14/4
f 25/1/1 26/2/1 27/3/1 28/4/1
f 29/5/2 30/6/2 31/7/2 32/8/2
f 31/9/3 30/10/3 27/11/3 26/2/3
f 29/12/4 32/13/4 25/1/4 28/14/4
f 33/1/7 34/4/7 35/3/7 36/2/7
f 37/5/8 38/8/8 39/7/8 40/6/8
f 39/9/9 36/2/9 35/11/9 40/10/9
f 37/12/10 34/14/10 33/1/10 38/13/10
f 41/1/11 42/2/11 43/3/11 44/4/11
f 45/5/12 46/6/12 47/7/12 48/8/12
f 47/9/13 46/10/13 43/11/13 42/2/13
f 45/12/14 48/13/14 41/1/14 44/14/14
f 49/1/15 50/4/15 51/3/15 52/2/15
f 53/5/8 54/8/8 55/7/8 56/6/8
f 55/9/9 52/2/9 51/11/9 56/10/9
f 53/12/10 50/14/10 49/1/10 54/13/10
f 57/1/16 58/2/16 59/3/16 60/4/16
f 61/5/12 62/6/12 63/7/12 64/8/12
f 63/9/13 62/10/13 59/11/13 58/2/13
f 61/12/14 64/13/14 57/1/14 60/14/14
f 65/1/7 66/4/7 67/3/7 68/2/7
f 69/5/17 70/8/17 71/7/17 72/6/17
f 71/9/9 68/2/9 67/11/9 72/10/9
f 69/12/10 66/14/10 65/1/10 70/13/10
f 73/1/16 74/2/16 75/3/16 76/4/16
f 77/5/18 78/6/18 79/7/18 80/8/18
f 79/9/13 78/10/13 75/11/13 74/2/13
f 77/12/14 80/13/14 73/1/14 76/14/14
f 81/1/11 82/2/11 83/3/11 84/4/11
f 85/5/12 86/6/12 87/7/12 88/8/12
f 87/9/13 86/10/13 83/11/13 82/2/13
f 85/12/14 88/13/14 81/1/14 84/14/14
f 89/1/7 90/4/7 91/3/7 92/2/7
f 93/5/17 94/8/17 95/7/17 96/6/17
f 95/9/9 92/2/9 91/11/9 96/10/9
f 93/12/10 90/14/10 89/1/10 94/13/10
f 97/1/16 98/2/16 99/3/16 100/4/16
f 101/5/12 102/6/12 103/7/12 104/8/12
f 103/9/13 102/10/13 99/11/13 98/2/13
f 101/12/14 104/13/14 97/1/14 100/14/14
f 105/1/7 106/4/7 107/3/7 108/2/7
f 109/5/8 110/8/8 111/7/8 112/6/8
f 111/9/9 108/2/9 107/11/9 112/10/9
f 109/12/10 106/14/10 105/1/10 110/13/10
f 113/1/16 114/2/16 115/3/16 116/4/16
f 117/5/12 118/6/12 119/7/12 120/8/12
f 119/9/13 118/10/13 115/11/13 114/2/13
f 117/12/14 120/13/14 113/1/14 116/14/14
f 121/13/2 122/1/2 123/2/2 124/9/2
f 123/2/5 122/1/5 125/1/5 126/2/5
f 127/13/1 128/9/1 126/2/1 125/1/1
f 124/7/6 128/7/6 127/8/6 121/8/6
f 121/13/3 127/13/3 125/1/3 122/1/3
f 123/2/4 126/2/4 128/7/4 124/9/4
f 23/9/2 18/2/2 17/1/2 24/8/2
f 15/9/2 10/2/2 9/1/2 16/8/2
