# Blender 4.2.0
# www.blender.org
mtllib jiedao_BJ_009.mtl
o group1_pCube49Sh26.005
v 0.111776 0.009633 0.199388
v 0.156989 0.009633 0.199388
v 0.156989 0.621262 0.035503
v 0.111776 0.621262 0.035503
v 0.156989 0.611629 -0.000447
v 0.111776 0.611629 -0.000447
v 0.156989 -0.000000 0.163437
v 0.111776 -0.000000 0.163437
v -0.163543 0.009633 0.199388
v -0.118330 0.009633 0.199388
v -0.118330 0.621262 0.035503
v -0.163543 0.621262 0.035503
v -0.118330 0.611629 -0.000447
v -0.163543 0.611629 -0.000447
v -0.118330 -0.000000 0.163437
v -0.163543 -0.000000 0.163437
v -0.203965 0.194884 0.192258
v 0.203964 0.194884 0.192258
v 0.203964 0.765225 0.039435
v -0.203965 0.765225 0.039435
v 0.203964 0.755592 0.003486
v -0.203965 0.755592 0.003486
v 0.203964 0.185251 0.156307
v -0.203965 0.185251 0.156307
v -0.111776 0.009633 -0.199388
v -0.156989 0.009633 -0.199388
v -0.156989 0.621262 -0.035503
v -0.111776 0.621262 -0.035503
v -0.156989 0.611629 0.000448
v -0.111776 0.611629 0.000448
v -0.156989 0.000000 -0.163438
v -0.111776 0.000000 -0.163438
v 0.163542 0.009633 -0.199388
v 0.118330 0.009633 -0.199388
v 0.118330 0.621262 -0.035503
v 0.163542 0.621262 -0.035503
v 0.118330 0.611629 0.000448
v 0.163542 0.611629 0.000448
v 0.118330 0.000000 -0.163438
v 0.163542 0.000000 -0.163438
v 0.203964 0.194884 -0.192258
v -0.203965 0.194884 -0.192258
v -0.203965 0.765225 -0.039435
v 0.203964 0.765225 -0.039435
v -0.203965 0.755592 -0.003485
v 0.203964 0.755592 -0.003485
v -0.203965 0.185251 -0.156307
v 0.203964 0.185251 -0.156307
vn -0.0000 0.2588 0.9659
vn -0.0000 0.9659 -0.2588
vn -0.0000 -0.2588 -0.9659
vn -0.0000 -0.9659 0.2588
vn 1.0000 -0.0000 -0.0000
vn -1.0000 -0.0000 -0.0000
vn -0.0000 0.2588 -0.9659
vn -0.0000 0.9659 0.2588
vn -0.0000 -0.2588 0.9659
vn -0.0000 -0.9659 -0.2588
vt 0.375000 0.000000
vt 0.625000 0.000000
vt 0.625000 0.250000
vt 0.375000 0.250000
vt 0.625000 0.500000
vt 0.375000 0.500000
vt 0.625000 0.750000
vt 0.375000 0.750000
vt 0.625000 1.000000
vt 0.375000 1.000000
vt 0.875000 0.000000
vt 0.875000 0.250000
vt 0.125000 0.000000
vt 0.125000 0.250000
s 1
usemtl group1_pCube49Sh26Mat
f 1/1/1 2/2/1 3/3/1 4/4/1
f 4/4/2 3/3/2 5/5/2 6/6/2
f 6/6/3 5/5/3 7/7/3 8/8/3
f 8/8/4 7/7/4 2/9/4 1/10/4
f 2/2/5 7/11/5 5/12/5 3/3/5
f 8/13/6 1/1/6 4/4/6 6/14/6
f 9/1/1 10/2/1 11/3/1 12/4/1
f 12/4/2 11/3/2 13/5/2 14/6/2
f 14/6/3 13/5/3 15/7/3 16/8/3
f 16/8/4 15/7/4 10/9/4 9/10/4
f 10/2/5 15/11/5 13/12/5 11/3/5
f 16/13/6 9/1/6 12/4/6 14/14/6
f 17/1/1 18/2/1 19/3/1 20/4/1
f 20/4/2 19/3/2 21/5/2 22/6/2
f 22/6/3 21/5/3 23/7/3 24/8/3
f 24/8/4 23/7/4 18/9/4 17/10/4
f 18/2/5 23/11/5 21/12/5 19/3/5
f 24/13/6 17/1/6 20/4/6 22/14/6
f 25/1/7 26/2/7 27/3/7 28/4/7
f 28/4/8 27/3/8 29/5/8 30/6/8
f 30/6/9 29/5/9 31/7/9 32/8/9
f 32/8/10 31/7/10 26/9/10 25/10/10
f 26/2/6 31/11/6 29/12/6 27/3/6
f 32/13/5 25/1/5 28/4/5 30/14/5
f 33/1/7 34/2/7 35/3/7 36/4/7
f 36/4/8 35/3/8 37/5/8 38/6/8
f 38/6/9 37/5/9 39/7/9 40/8/9
f 40/8/10 39/7/10 34/9/10 33/10/10
f 34/2/6 39/11/6 37/12/6 35/3/6
f 40/13/5 33/1/5 36/4/5 38/14/5
f 41/1/7 42/2/7 43/3/7 44/4/7
f 44/4/8 43/3/8 45/5/8 46/6/8
f 46/6/9 45/5/9 47/7/9 48/8/9
f 48/8/10 47/7/10 42/9/10 41/10/10
f 42/2/6 47/11/6 45/12/6 43/3/6
f 48/13/5 41/1/5 44/4/5 46/14/5
