# Blender 4.2.0
# www.blender.org
mtllib jiedao_BJ_0013.mtl
o group1_TEMPORARY_IMPORT_NAMESPACE_摰文____:pCube41Sh.001
v 0.607970 2.420414 0.106426
v 0.607970 2.420414 -0.104514
v 0.607971 3.664272 -0.104515
v 0.607971 3.664272 0.106426
v -0.635888 3.664273 -0.104515
v -0.635888 3.664273 0.106426
v -0.635889 2.420415 -0.104514
v -0.635889 2.420415 0.106426
v 0.543157 2.485226 -0.064907
v -0.571075 2.485227 -0.064907
v -0.571075 3.599461 -0.064907
v 0.543158 3.599460 -0.064907
v -0.571075 2.485227 0.066818
v 0.543157 2.485226 0.066818
v 0.543158 3.599460 0.066818
v -0.571075 3.599461 0.066818
v -0.571075 2.485227 -0.093524
v 0.543157 2.485226 -0.093524
v -0.571075 3.599461 -0.093524
v 0.543158 3.599460 -0.093524
v 0.543157 2.485226 0.095436
v -0.571075 2.485227 0.095436
v 0.543158 3.599460 0.095436
v -0.571075 3.599461 0.095436
v -0.386134 0.108926 -0.019571
v -0.386134 0.108926 0.019587
v -0.386133 2.455959 0.019586
v -0.386133 2.455959 -0.019571
v -0.352222 0.108926 0.039166
v -0.352220 2.455959 0.039166
v -0.318309 0.108926 0.019587
v -0.318307 2.455959 0.019586
v -0.318309 0.108926 -0.019571
v -0.318307 2.455959 -0.019571
v -0.352222 0.108926 -0.039151
v -0.352220 2.455959 -0.039151
v -0.405358 0.095711 -0.030671
v -0.405358 0.095711 0.030687
v -0.352222 0.095711 0.061366
v -0.299083 0.095711 0.030687
v -0.299083 0.095711 -0.030671
v -0.352222 0.095711 -0.061351
v -0.412575 0.000000 -0.034838
v -0.412575 0.000000 0.034853
v -0.352222 0.000000 0.069698
v -0.291867 0.000000 0.034853
v -0.291867 0.000000 -0.034838
v -0.352222 0.000000 -0.069683
v 0.318304 0.108925 -0.019571
v 0.318304 0.108925 0.019587
v 0.318305 2.455959 0.019586
v 0.318305 2.455959 -0.019571
v 0.352217 0.108925 0.039166
v 0.352218 2.455959 0.039166
v 0.386130 0.108925 0.019587
v 0.386131 2.455959 0.019586
v 0.386130 0.108925 -0.019571
v 0.386131 2.455959 -0.019571
v 0.352217 0.108925 -0.039151
v 0.352218 2.455959 -0.039151
v 0.299080 0.095711 -0.030671
v 0.299080 0.095711 0.030687
v 0.352217 0.095711 0.061366
v 0.405353 0.095711 0.030687
v 0.405353 0.095711 -0.030671
v 0.352217 0.095711 -0.061351
v 0.291863 -0.000000 -0.034838
v 0.291863 -0.000000 0.034853
v 0.352217 -0.000000 0.069698
v 0.412572 -0.000000 0.034853
v 0.412572 -0.000000 -0.034838
v 0.352217 -0.000000 -0.069683
vn 1.0000 -0.0000 -0.0000
vn -0.0000 1.0000 -0.0000
vn -1.0000 -0.0000 -0.0000
vn -0.0000 -1.0000 -0.0000
vn -0.0000 -0.0000 -1.0000
vn -0.0000 -0.0000 1.0000
vn -0.0000 0.1672 -0.9859
vn 0.1672 -0.0000 -0.9859
vn -0.0000 -0.1672 -0.9859
vn -0.1672 -0.0000 -0.9859
vn -0.0000 0.1672 0.9859
vn -0.1672 -0.0000 0.9859
vn -0.0000 -0.1672 0.9859
vn 0.1672 -0.0000 0.9859
vn -0.5000 -0.0000 0.8660
vn 0.5000 -0.0000 0.8660
vn 0.5000 -0.0000 -0.8660
vn -0.5000 -0.0000 -0.8660
vn -0.5665 0.8241 -0.0000
vn -0.2832 0.8241 0.4906
vn 0.2832 0.8241 0.4906
vn 0.5665 0.8241 -0.0000
vn 0.2832 0.8241 -0.4906
vn -0.2832 0.8241 -0.4906
vn -0.9972 0.0752 -0.0000
vn -0.4986 0.0752 0.8636
vn 0.4986 0.0752 0.8636
vn 0.9972 0.0752 -0.0000
vn 0.4986 0.0752 -0.8636
vn -0.4986 0.0752 -0.8636
vt 0.375000 0.000000
vt 0.625000 0.000000
vt 0.625000 0.250000
vt 0.375000 0.250000
vt 0.625000 0.500000
vt 0.375000 0.500000
vt 0.625000 0.750000
vt 0.375000 0.750000
vt 0.625000 1.000000
vt 0.375000 1.000000
vt 0.875000 0.000000
vt 0.875000 0.250000
vt 0.125000 0.000000
vt 0.125000 0.250000
vt 0.375000 0.312500
vt 0.416667 0.312500
vt 0.416667 0.688440
vt 0.375000 0.688440
vt 0.458333 0.312500
vt 0.458333 0.688440
vt 0.500000 0.312500
vt 0.500000 0.688440
vt 0.541667 0.312500
vt 0.541667 0.688440
vt 0.583333 0.312500
vt 0.583333 0.688440
vt 0.625000 0.312500
vt 0.625000 0.688440
vt 0.000000 0.000000
vt 1.000000 0.000000
vt 1.000000 1.000000
vt 0.000000 1.000000
s 1
usemtl group1_TEMPORARY_IMPORT_NAMESPACE_摰文____:pCube41ShMat
f 1/1/1 2/2/1 3/3/1 4/4/1
f 4/4/2 3/3/2 5/5/2 6/6/2
f 6/6/3 5/5/3 7/7/3 8/8/3
f 8/8/4 7/7/4 2/9/4 1/10/4
f 9/2/5 10/11/5 11/12/5 12/3/5
f 13/13/6 14/1/6 15/4/6 16/14/6
f 2/2/7 7/11/7 17/11/7 18/2/7
f 7/11/8 5/12/8 19/12/8 17/11/8
f 5/12/9 3/3/9 20/3/9 19/12/9
f 3/3/10 2/2/10 18/2/10 20/3/10
f 8/13/11 1/1/11 21/1/11 22/13/11
f 1/1/12 4/4/12 23/4/12 21/1/12
f 4/4/13 6/14/13 24/14/13 23/4/13
f 6/14/14 8/13/14 22/13/14 24/14/14
f 18/2/2 17/11/2 10/11/2 9/2/2
f 17/11/1 19/12/1 11/12/1 10/11/1
f 19/12/4 20/3/4 12/3/4 11/12/4
f 20/3/3 18/2/3 9/2/3 12/3/3
f 22/13/2 21/1/2 14/1/2 13/13/2
f 21/1/3 23/4/3 15/4/3 14/1/3
f 23/4/4 24/14/4 16/14/4 15/4/4
f 24/14/1 22/13/1 13/13/1 16/14/1
f 25/15/3 26/16/3 27/17/3 28/18/3
f 26/16/15 29/19/15 30/20/15 27/17/15
f 29/19/16 31/21/16 32/22/16 30/20/16
f 31/21/1 33/23/1 34/24/1 32/22/1
f 33/23/17 35/25/17 36/26/17 34/24/17
f 35/25/18 25/27/18 28/28/18 36/26/18
f 26/29/19 25/30/19 37/31/19 38/32/19
f 29/29/20 26/30/20 38/31/20 39/32/20
f 31/29/21 29/30/21 39/31/21 40/32/21
f 33/29/22 31/30/22 40/31/22 41/32/22
f 35/29/23 33/30/23 41/31/23 42/32/23
f 25/29/24 35/30/24 42/31/24 37/32/24
f 38/29/25 37/30/25 43/31/25 44/32/25
f 39/29/26 38/30/26 44/31/26 45/32/26
f 40/29/27 39/30/27 45/31/27 46/32/27
f 41/29/28 40/30/28 46/31/28 47/32/28
f 42/29/29 41/30/29 47/31/29 48/32/29
f 37/29/30 42/30/30 48/31/30 43/32/30
f 49/15/3 50/16/3 51/17/3 52/18/3
f 50/16/15 53/19/15 54/20/15 51/17/15
f 53/19/16 55/21/16 56/22/16 54/20/16
f 55/21/1 57/23/1 58/24/1 56/22/1
f 57/23/17 59/25/17 60/26/17 58/24/17
f 59/25/18 49/27/18 52/28/18 60/26/18
f 50/29/19 49/30/19 61/31/19 62/32/19
f 53/29/20 50/30/20 62/31/20 63/32/20
f 55/29/21 53/30/21 63/31/21 64/32/21
f 57/29/22 55/30/22 64/31/22 65/32/22
f 59/29/23 57/30/23 65/31/23 66/32/23
f 49/29/24 59/30/24 66/31/24 61/32/24
f 62/29/25 61/30/25 67/31/25 68/32/25
f 63/29/26 62/30/26 68/31/26 69/32/26
f 64/29/27 63/30/27 69/31/27 70/32/27
f 65/29/28 64/30/28 70/31/28 71/32/28
f 66/29/29 65/30/29 71/31/29 72/32/29
f 61/29/30 66/30/30 72/31/30 67/32/30
