# Blender 4.2.0
# www.blender.org
mtllib jiedao_BJ_003.mtl
o 立方体.100
v -0.000003 -0.337691 -0.024098
v 3.362873 -0.337691 -0.024098
v -0.000003 -0.387767 -0.024098
v 3.362873 -0.387767 -0.024098
v -0.000003 -0.337691 0.024102
v 3.362873 -0.337691 0.024102
v -0.000003 -0.387767 0.024102
v 3.362873 -0.387767 0.024102
v -0.000003 0.337690 -0.024099
v 3.362873 0.337691 -0.024099
v -0.000003 0.387766 -0.024099
v 3.362873 0.387766 -0.024099
v -0.000003 0.337690 0.024102
v 3.362873 0.337691 0.024102
v -0.000003 0.387766 0.024102
v 3.362873 0.387766 0.024102
v 0.460953 -0.375265 -0.011564
v 0.083310 0.344998 -0.011565
v 0.436920 -0.375265 -0.011564
v 0.059276 0.344998 -0.011565
v 0.460953 -0.375265 0.011570
v 0.083310 0.344998 0.011569
v 0.436920 -0.375265 0.011570
v 0.059276 0.344998 0.011569
v 0.488678 0.339632 -0.014997
v 1.151512 0.339632 -0.014997
v 0.488678 -0.339632 -0.014997
v 1.151512 -0.339632 -0.014997
v 0.488678 0.339632 0.015001
v 1.151512 0.339632 0.015001
v 0.488678 -0.339632 0.015001
v 1.151512 -0.339632 0.015001
v 1.217795 0.339632 -0.014997
v 1.880629 0.339632 -0.014997
v 1.217795 -0.339632 -0.014997
v 1.880629 -0.339632 -0.014997
v 1.217795 0.339632 0.015001
v 1.880629 0.339632 0.015001
v 1.217795 -0.339632 0.015001
v 1.880629 -0.339632 0.015001
v 1.946913 0.339632 -0.014997
v 2.609747 0.339632 -0.014997
v 1.946913 -0.339632 -0.014997
v 2.609747 -0.339632 -0.014997
v 1.946913 0.339632 0.015001
v 2.609747 0.339632 0.015001
v 1.946913 -0.339632 0.015001
v 2.609747 -0.339632 0.015001
v 2.676030 0.339632 -0.014997
v 3.338864 0.339632 -0.014997
v 2.676030 -0.339632 -0.014997
v 3.338864 -0.339632 -0.014997
v 2.676030 0.339632 0.015001
v 3.338864 0.339632 0.015001
v 2.676030 -0.339632 0.015001
v 3.338864 -0.339632 0.015001
vn -0.0000 -0.0000 -1.0000
vn -0.0000 -1.0000 -0.0000
vn -0.0000 -0.0000 1.0000
vn -0.0000 1.0000 -0.0000
vn -1.0000 -0.0000 -0.0000
vn 1.0000 -0.0000 -0.0000
vn -0.8856 -0.4644 -0.0000
vn 0.8856 0.4644 -0.0000
vt 0.375000 0.000000
vt 0.625000 0.000000
vt 0.625000 0.250000
vt 0.375000 0.250000
vt 0.625000 0.500000
vt 0.375000 0.500000
vt 0.625000 0.750000
vt 0.375000 0.750000
vt 0.625000 1.000000
vt 0.375000 1.000000
vt 0.125000 0.500000
vt 0.125000 0.750000
vt 0.875000 0.500000
vt 0.875000 0.750000
s 0
f 1/1/1 2/2/1 4/3/1 3/4/1
f 3/4/2 4/3/2 8/5/2 7/6/2
f 7/6/3 8/5/3 6/7/3 5/8/3
f 5/8/4 6/7/4 2/9/4 1/10/4
f 3/11/5 7/6/5 5/8/5 1/12/5
f 8/5/6 4/13/6 2/14/6 6/7/6
f 9/1/1 11/4/1 12/3/1 10/2/1
f 11/4/4 15/6/4 16/5/4 12/3/4
f 15/6/3 13/8/3 14/7/3 16/5/3
f 13/8/2 9/10/2 10/9/2 14/7/2
f 11/11/5 9/12/5 13/8/5 15/6/5
f 16/5/6 14/7/6 10/14/6 12/13/6
f 17/1/1 19/4/1 20/3/1 18/2/1
f 19/4/7 23/6/7 24/5/7 20/3/7
f 23/6/3 21/8/3 22/7/3 24/5/3
f 21/8/8 17/10/8 18/9/8 22/7/8
f 19/11/2 17/12/2 21/8/2 23/6/2
f 24/5/4 22/7/4 18/14/4 20/13/4
f 25/1/1 26/2/1 28/3/1 27/4/1
f 27/4/2 28/3/2 32/5/2 31/6/2
f 31/6/3 32/5/3 30/7/3 29/8/3
f 29/8/4 30/7/4 26/9/4 25/10/4
f 27/11/5 31/6/5 29/8/5 25/12/5
f 32/5/6 28/13/6 26/14/6 30/7/6
f 33/1/1 34/2/1 36/3/1 35/4/1
f 35/4/2 36/3/2 40/5/2 39/6/2
f 39/6/3 40/5/3 38/7/3 37/8/3
f 37/8/4 38/7/4 34/9/4 33/10/4
f 35/11/5 39/6/5 37/8/5 33/12/5
f 40/5/6 36/13/6 34/14/6 38/7/6
f 41/1/1 42/2/1 44/3/1 43/4/1
f 43/4/2 44/3/2 48/5/2 47/6/2
f 47/6/3 48/5/3 46/7/3 45/8/3
f 45/8/4 46/7/4 42/9/4 41/10/4
f 43/11/5 47/6/5 45/8/5 41/12/5
f 48/5/6 44/13/6 42/14/6 46/7/6
f 49/1/1 50/2/1 52/3/1 51/4/1
f 51/4/2 52/3/2 56/5/2 55/6/2
f 55/6/3 56/5/3 54/7/3 53/8/3
f 53/8/4 54/7/4 50/9/4 49/10/4
f 51/11/5 55/6/5 53/8/5 49/12/5
f 56/5/6 52/13/6 50/14/6 54/7/6
