# Blender 4.2.0
# www.blender.org
mtllib jiedao_BJ_001.mtl
o 立方体.099
v -1.350055 2.467062 1.542953
v -1.350055 2.617319 1.542953
v -1.350056 2.975754 0.271985
v -1.350056 3.030712 0.271985
v 1.276641 2.467062 1.542952
v 1.276641 2.617319 1.542952
v 1.276641 2.975754 0.271984
v 1.276641 3.030712 0.271984
v -1.350056 3.030712 0.224706
v -1.350056 2.975754 0.224706
v 1.276641 2.975754 0.224704
v 1.276641 3.030712 0.224704
v -1.350056 3.030712 0.271985
v 1.276641 3.030712 0.271984
v -1.350055 2.561681 1.541864
v -1.350055 2.616639 1.541864
v 1.276641 2.561681 1.541863
v -1.350055 2.616639 1.494585
v -1.350055 2.561681 1.494585
v 1.276641 2.561681 1.494583
v 1.276641 2.616639 1.494583
v 1.276641 2.616639 1.541863
v -1.223310 2.571834 1.539801
v -1.223310 2.613850 1.539801
v -1.223310 2.463284 0.225687
v -1.223310 2.505300 0.225687
v -1.181293 2.571834 1.539801
v -1.181293 2.613850 1.539801
v -1.181294 2.463284 0.225687
v -1.181294 2.505300 0.225687
v 1.149896 2.571834 1.539800
v 1.149896 2.613850 1.539800
v 1.149895 2.463284 0.225685
v 1.149895 2.505300 0.225685
v 1.107880 2.571834 1.539800
v 1.107880 2.613850 1.539800
v 1.107879 2.463284 0.225685
v 1.107879 2.505300 0.225685
v -1.211909 2.479612 0.222089
v -1.211909 2.479612 0.264105
v -1.211909 3.029378 0.222089
v -1.211909 3.029378 0.264105
v -1.192696 2.479612 0.222089
v -1.192696 2.479612 0.264105
v -1.192696 3.029378 0.222089
v -1.192696 3.029378 0.264105
v 1.138494 2.479612 0.222087
v 1.138494 2.479612 0.264104
v 1.138494 3.029378 0.222087
v 1.138494 3.029378 0.264104
v 1.119280 2.479612 0.222087
v 1.119280 2.479612 0.264104
v 1.119280 3.029378 0.222087
v 1.119280 3.029378 0.264104
v -1.308828 0.105764 0.408545
v -1.308828 2.190595 0.408545
v -1.308829 0.105764 0.000001
v -1.308829 2.190595 0.000001
v 1.308829 0.105764 0.408543
v 1.308829 2.190595 0.408543
v 1.308829 0.105764 -0.000001
v 1.308829 2.190595 -0.000001
v 1.308829 2.075697 0.408543
v 1.308829 2.075697 -0.000001
v -1.308829 2.075697 0.000001
v -1.308828 2.075697 0.408545
v 1.171496 2.190595 -0.000001
v -1.171496 2.190595 0.000001
v 1.171497 0.105764 0.408543
v -1.171496 0.105764 0.408545
v -1.171496 2.190595 0.408545
v 1.171497 2.190595 0.408543
v -1.171496 2.075697 0.408545
v 1.171497 2.075697 0.408543
v -1.171496 2.075697 0.285441
v 1.171497 2.075697 0.285440
v 1.171497 0.105764 0.285440
v -1.171496 0.105764 0.285441
v -1.308828 0.000000 0.408545
v -1.308829 0.000000 0.000001
v 1.308829 0.000000 0.408543
v 1.308829 0.000000 -0.000001
v 1.171497 0.000000 0.408543
v -1.171496 0.000000 0.408545
v -1.249144 1.703839 0.467855
v -1.249144 2.496854 0.467855
v -1.249144 1.703839 0.402059
v -1.249144 2.496854 0.402059
v 1.246474 1.703839 0.467854
v 1.246474 2.496854 0.467854
v 1.246473 1.703839 0.402058
v 1.246473 2.496854 0.402058
vn 1.0000 -0.0000 -0.0000
vn -0.0000 -0.0000 1.0000
vn -0.0000 0.9510 0.3093
vn -0.0000 -0.0000 -1.0000
vn -0.0000 -1.0000 -0.0000
vn -0.0000 1.0000 -0.0000
vn -1.0000 -0.0000 -0.0000
vn -0.0000 -0.9966 0.0823
vn -0.0000 0.9966 -0.0823
vt 0.000000 0.000000
vt 0.000075 0.000075
vt 0.057271 0.000075
vt 0.057271 0.999925
vt 0.000075 0.999925
vt 0.566011 0.000075
vt 0.566011 0.999925
vt 0.375000 0.250000
vt 0.625000 0.250000
vt 0.625000 0.500000
vt 0.375000 0.500000
vt 0.875000 0.500000
vt 0.335119 0.504406
vt 0.335119 0.499983
vt 0.338924 0.499983
vt 0.338924 0.504406
vt 0.255208 0.472736
vt 0.255208 0.477158
vt 0.466589 0.477158
vt 0.466589 0.472736
vt 0.466589 0.199110
vt 0.255208 0.199110
vt 0.255208 0.202915
vt 0.466589 0.202915
vt 0.302342 0.500960
vt 0.302342 0.505017
vt 0.429245 0.494535
vt 0.429245 0.490477
vt 0.376515 0.346065
vt 0.379896 0.346065
vt 0.379896 0.240313
vt 0.376515 0.240313
vt 0.111410 0.999953
vt 0.034992 0.999953
vt 0.034992 0.000047
vt 0.111410 0.000047
vt 0.146355 0.000047
vt 0.222773 0.000047
vt 0.222773 0.999953
vt 0.146355 0.999953
vt 0.375000 0.750000
vt 0.625000 0.750000
vt 0.625000 1.000000
vt 0.375000 1.000000
vt 0.000047 0.000047
vt 0.000047 0.999953
vt 0.611901 0.000000
vt 0.625000 0.000000
vt 0.611901 0.250000
vt 0.638116 0.500000
vt 0.638116 0.750000
vt 0.611901 0.500000
vt 0.611901 0.750000
vt 0.625000 0.763116
vt 0.611901 0.763116
vt 0.861884 0.500000
vt 0.875000 0.750000
vt 0.861884 0.750000
vt 0.611901 0.986884
vt 0.625000 0.986884
vt 0.611901 1.000000
vt 0.375000 0.763116
vt 0.375000 0.986884
vt 0.375000 0.000000
vt 0.125000 0.500000
vt 0.125000 0.750000
s 0
f 14/1/1 7/1/1 11/1/1 12/1/1
f 5/2/2 6/3/2 2/4/2 1/5/2
f 8/6/3 13/7/3 2/4/3 6/3/3
f 10/8/4 9/9/4 12/10/4 11/11/4
f 7/1/5 3/1/5 10/1/5 11/1/5
f 4/12/6 14/10/6 12/10/6 9/12/6
f 3/1/7 4/1/7 9/1/7 10/1/7
f 4/1/2 3/1/2 7/1/2 14/1/2
f 22/13/1 17/14/1 20/15/1 21/16/1
f 19/17/4 18/18/4 21/19/4 20/20/4
f 17/21/5 15/22/5 19/23/5 20/24/5
f 16/22/6 22/21/6 21/24/6 18/23/6
f 15/14/7 16/13/7 18/16/7 19/15/7
f 16/18/2 15/17/2 17/20/2 22/19/2
f 23/25/7 24/26/7 26/27/7 25/28/7
f 25/28/4 26/27/4 30/27/4 29/28/4
f 29/28/1 30/27/1 28/26/1 27/25/1
f 27/25/2 28/26/2 24/26/2 23/25/2
f 25/29/8 29/30/8 27/31/8 23/32/8
f 30/30/9 26/29/9 24/32/9 28/31/9
f 31/25/1 33/28/1 34/27/1 32/26/1
f 33/28/4 37/28/4 38/27/4 34/27/4
f 37/28/7 35/25/7 36/26/7 38/27/7
f 35/25/2 31/25/2 32/26/2 36/26/2
f 33/29/8 31/32/8 35/31/8 37/30/8
f 38/30/9 36/31/9 32/32/9 34/29/9
f 39/33/7 40/34/7 42/35/7 41/36/7
f 41/8/6 42/9/6 46/10/6 45/11/6
f 45/37/1 46/38/1 44/39/1 43/40/1
f 43/41/5 44/42/5 40/43/5 39/44/5
f 41/36/4 45/37/4 43/40/4 39/33/4
f 46/45/2 42/35/2 40/34/2 44/46/2
f 47/33/1 49/36/1 50/35/1 48/34/1
f 49/8/6 53/11/6 54/10/6 50/9/6
f 53/37/7 51/40/7 52/39/7 54/38/7
f 51/41/5 47/44/5 48/43/5 52/42/5
f 49/36/4 47/33/4 51/40/4 53/37/4
f 54/45/2 52/46/2 48/34/2 50/35/2
f 66/47/7 56/48/7 58/9/7 65/49/7
f 62/10/6 67/50/6 72/51/6 60/42/6
f 64/52/1 62/10/1 60/42/1 63/53/1
f 63/53/2 60/42/2 72/54/2 74/55/2
f 68/56/6 58/12/6 56/57/6 71/58/6
f 73/59/2 71/60/2 56/43/2 66/61/2
f 68/56/6 71/58/6 72/51/6 67/50/6
f 69/62/7 74/55/7 76/55/7 77/62/7
f 71/60/2 73/59/2 74/55/2 72/54/2
f 70/63/2 73/59/2 66/61/2 55/44/2
f 59/41/2 63/53/2 74/55/2 69/62/2
f 61/11/1 64/52/1 63/53/1 59/41/1
f 55/64/7 66/47/7 65/49/7 57/8/7
f 75/59/2 78/63/2 77/62/2 76/55/2
f 74/55/5 73/59/5 75/59/5 76/55/5
f 73/59/1 70/63/1 78/63/1 75/59/1
f 55/64/7 57/8/7 80/8/7 79/64/7
f 61/11/1 59/41/1 81/41/1 82/11/1
f 70/1/2 84/1/2 83/1/2 69/1/2
f 59/41/2 69/62/2 83/62/2 81/41/2
f 70/63/2 55/44/2 79/44/2 84/63/2
f 78/63/6 70/63/6 69/1/6 77/62/6
f 85/64/7 86/48/7 88/9/7 87/8/7
f 91/11/1 92/10/1 90/42/1 89/41/1
f 89/41/2 90/42/2 86/43/2 85/44/2
f 87/65/5 91/11/5 89/41/5 85/66/5
f 92/10/6 88/12/6 86/57/6 90/42/6
